<?xml version="1.0" encoding="UTF-8" ?>
<svg version="1.1" width="80" height="8" xmlns="http://www.w3.org/2000/svg" shape-rendering="crispEdges">
<rect x="3" y="0" width="1" height="1" fill="#9BADB7" />
<rect x="4" y="0" width="1" height="1" fill="#9BADB7" />
<rect x="5" y="0" width="1" height="1" fill="#9BADB7" />
<rect x="6" y="0" width="1" height="1" fill="#9BADB7" />
<rect x="7" y="0" width="1" height="1" fill="#9BADB7" />
<rect x="8" y="0" width="1" height="1" fill="#9BADB7" />
<rect x="9" y="0" width="1" height="1" fill="#9BADB7" />
<rect x="10" y="0" width="1" height="1" fill="#9BADB7" />
<rect x="11" y="0" width="1" height="1" fill="#9BADB7" />
<rect x="12" y="0" width="1" height="1" fill="#9BADB7" />
<rect x="13" y="0" width="1" height="1" fill="#9BADB7" />
<rect x="14" y="0" width="1" height="1" fill="#9BADB7" />
<rect x="15" y="0" width="1" height="1" fill="#9BADB7" />
<rect x="16" y="0" width="1" height="1" fill="#9BADB7" />
<rect x="17" y="0" width="1" height="1" fill="#9BADB7" />
<rect x="18" y="0" width="1" height="1" fill="#9BADB7" />
<rect x="19" y="0" width="1" height="1" fill="#9BADB7" />
<rect x="20" y="0" width="1" height="1" fill="#9BADB7" />
<rect x="21" y="0" width="1" height="1" fill="#9BADB7" />
<rect x="22" y="0" width="1" height="1" fill="#9BADB7" />
<rect x="23" y="0" width="1" height="1" fill="#9BADB7" />
<rect x="24" y="0" width="1" height="1" fill="#9BADB7" />
<rect x="25" y="0" width="1" height="1" fill="#9BADB7" />
<rect x="26" y="0" width="1" height="1" fill="#9BADB7" />
<rect x="27" y="0" width="1" height="1" fill="#9BADB7" />
<rect x="28" y="0" width="1" height="1" fill="#9BADB7" />
<rect x="29" y="0" width="1" height="1" fill="#9BADB7" />
<rect x="30" y="0" width="1" height="1" fill="#9BADB7" />
<rect x="31" y="0" width="1" height="1" fill="#9BADB7" />
<rect x="32" y="0" width="1" height="1" fill="#9BADB7" />
<rect x="33" y="0" width="1" height="1" fill="#9BADB7" />
<rect x="34" y="0" width="1" height="1" fill="#9BADB7" />
<rect x="35" y="0" width="1" height="1" fill="#9BADB7" />
<rect x="36" y="0" width="1" height="1" fill="#9BADB7" />
<rect x="37" y="0" width="1" height="1" fill="#9BADB7" />
<rect x="38" y="0" width="1" height="1" fill="#9BADB7" />
<rect x="39" y="0" width="1" height="1" fill="#9BADB7" />
<rect x="40" y="0" width="1" height="1" fill="#9BADB7" />
<rect x="41" y="0" width="1" height="1" fill="#9BADB7" />
<rect x="42" y="0" width="1" height="1" fill="#9BADB7" />
<rect x="43" y="0" width="1" height="1" fill="#9BADB7" />
<rect x="44" y="0" width="1" height="1" fill="#9BADB7" />
<rect x="45" y="0" width="1" height="1" fill="#9BADB7" />
<rect x="46" y="0" width="1" height="1" fill="#9BADB7" />
<rect x="47" y="0" width="1" height="1" fill="#9BADB7" />
<rect x="48" y="0" width="1" height="1" fill="#9BADB7" />
<rect x="49" y="0" width="1" height="1" fill="#9BADB7" />
<rect x="50" y="0" width="1" height="1" fill="#9BADB7" />
<rect x="51" y="0" width="1" height="1" fill="#9BADB7" />
<rect x="52" y="0" width="1" height="1" fill="#9BADB7" />
<rect x="53" y="0" width="1" height="1" fill="#9BADB7" />
<rect x="54" y="0" width="1" height="1" fill="#9BADB7" />
<rect x="55" y="0" width="1" height="1" fill="#9BADB7" />
<rect x="56" y="0" width="1" height="1" fill="#9BADB7" />
<rect x="57" y="0" width="1" height="1" fill="#9BADB7" />
<rect x="58" y="0" width="1" height="1" fill="#9BADB7" />
<rect x="59" y="0" width="1" height="1" fill="#9BADB7" />
<rect x="60" y="0" width="1" height="1" fill="#9BADB7" />
<rect x="61" y="0" width="1" height="1" fill="#9BADB7" />
<rect x="62" y="0" width="1" height="1" fill="#9BADB7" />
<rect x="63" y="0" width="1" height="1" fill="#9BADB7" />
<rect x="64" y="0" width="1" height="1" fill="#9BADB7" />
<rect x="65" y="0" width="1" height="1" fill="#9BADB7" />
<rect x="66" y="0" width="1" height="1" fill="#9BADB7" />
<rect x="67" y="0" width="1" height="1" fill="#9BADB7" />
<rect x="68" y="0" width="1" height="1" fill="#9BADB7" />
<rect x="69" y="0" width="1" height="1" fill="#9BADB7" />
<rect x="70" y="0" width="1" height="1" fill="#9BADB7" />
<rect x="71" y="0" width="1" height="1" fill="#9BADB7" />
<rect x="72" y="0" width="1" height="1" fill="#9BADB7" />
<rect x="73" y="0" width="1" height="1" fill="#9BADB7" />
<rect x="74" y="0" width="1" height="1" fill="#9BADB7" />
<rect x="75" y="0" width="1" height="1" fill="#9BADB7" />
<rect x="76" y="0" width="1" height="1" fill="#9BADB7" />
<rect x="1" y="1" width="1" height="1" fill="#9BADB7" />
<rect x="2" y="1" width="1" height="1" fill="#9BADB7" />
<rect x="3" y="1" width="1" height="1" fill="#9BADB7" />
<rect x="76" y="1" width="1" height="1" fill="#9BADB7" />
<rect x="77" y="1" width="1" height="1" fill="#9BADB7" />
<rect x="78" y="1" width="1" height="1" fill="#9BADB7" />
<rect x="0" y="2" width="1" height="1" fill="#9BADB7" />
<rect x="1" y="2" width="1" height="1" fill="#9BADB7" />
<rect x="78" y="2" width="1" height="1" fill="#9BADB7" />
<rect x="79" y="2" width="1" height="1" fill="#9BADB7" />
<rect x="0" y="3" width="1" height="1" fill="#9BADB7" />
<rect x="79" y="3" width="1" height="1" fill="#9BADB7" />
<rect x="0" y="4" width="1" height="1" fill="#9BADB7" />
<rect x="79" y="4" width="1" height="1" fill="#9BADB7" />
<rect x="0" y="5" width="1" height="1" fill="#9BADB7" />
<rect x="1" y="5" width="1" height="1" fill="#9BADB7" />
<rect x="78" y="5" width="1" height="1" fill="#9BADB7" />
<rect x="79" y="5" width="1" height="1" fill="#9BADB7" />
<rect x="1" y="6" width="1" height="1" fill="#9BADB7" />
<rect x="2" y="6" width="1" height="1" fill="#9BADB7" />
<rect x="3" y="6" width="1" height="1" fill="#9BADB7" />
<rect x="76" y="6" width="1" height="1" fill="#9BADB7" />
<rect x="77" y="6" width="1" height="1" fill="#9BADB7" />
<rect x="78" y="6" width="1" height="1" fill="#9BADB7" />
<rect x="3" y="7" width="1" height="1" fill="#9BADB7" />
<rect x="4" y="7" width="1" height="1" fill="#9BADB7" />
<rect x="5" y="7" width="1" height="1" fill="#9BADB7" />
<rect x="6" y="7" width="1" height="1" fill="#9BADB7" />
<rect x="7" y="7" width="1" height="1" fill="#9BADB7" />
<rect x="8" y="7" width="1" height="1" fill="#9BADB7" />
<rect x="9" y="7" width="1" height="1" fill="#9BADB7" />
<rect x="10" y="7" width="1" height="1" fill="#9BADB7" />
<rect x="11" y="7" width="1" height="1" fill="#9BADB7" />
<rect x="12" y="7" width="1" height="1" fill="#9BADB7" />
<rect x="13" y="7" width="1" height="1" fill="#9BADB7" />
<rect x="14" y="7" width="1" height="1" fill="#9BADB7" />
<rect x="15" y="7" width="1" height="1" fill="#9BADB7" />
<rect x="16" y="7" width="1" height="1" fill="#9BADB7" />
<rect x="17" y="7" width="1" height="1" fill="#9BADB7" />
<rect x="18" y="7" width="1" height="1" fill="#9BADB7" />
<rect x="19" y="7" width="1" height="1" fill="#9BADB7" />
<rect x="20" y="7" width="1" height="1" fill="#9BADB7" />
<rect x="21" y="7" width="1" height="1" fill="#9BADB7" />
<rect x="22" y="7" width="1" height="1" fill="#9BADB7" />
<rect x="23" y="7" width="1" height="1" fill="#9BADB7" />
<rect x="24" y="7" width="1" height="1" fill="#9BADB7" />
<rect x="25" y="7" width="1" height="1" fill="#9BADB7" />
<rect x="26" y="7" width="1" height="1" fill="#9BADB7" />
<rect x="27" y="7" width="1" height="1" fill="#9BADB7" />
<rect x="28" y="7" width="1" height="1" fill="#9BADB7" />
<rect x="29" y="7" width="1" height="1" fill="#9BADB7" />
<rect x="30" y="7" width="1" height="1" fill="#9BADB7" />
<rect x="31" y="7" width="1" height="1" fill="#9BADB7" />
<rect x="32" y="7" width="1" height="1" fill="#9BADB7" />
<rect x="33" y="7" width="1" height="1" fill="#9BADB7" />
<rect x="34" y="7" width="1" height="1" fill="#9BADB7" />
<rect x="35" y="7" width="1" height="1" fill="#9BADB7" />
<rect x="36" y="7" width="1" height="1" fill="#9BADB7" />
<rect x="37" y="7" width="1" height="1" fill="#9BADB7" />
<rect x="38" y="7" width="1" height="1" fill="#9BADB7" />
<rect x="39" y="7" width="1" height="1" fill="#9BADB7" />
<rect x="40" y="7" width="1" height="1" fill="#9BADB7" />
<rect x="41" y="7" width="1" height="1" fill="#9BADB7" />
<rect x="42" y="7" width="1" height="1" fill="#9BADB7" />
<rect x="43" y="7" width="1" height="1" fill="#9BADB7" />
<rect x="44" y="7" width="1" height="1" fill="#9BADB7" />
<rect x="45" y="7" width="1" height="1" fill="#9BADB7" />
<rect x="46" y="7" width="1" height="1" fill="#9BADB7" />
<rect x="47" y="7" width="1" height="1" fill="#9BADB7" />
<rect x="48" y="7" width="1" height="1" fill="#9BADB7" />
<rect x="49" y="7" width="1" height="1" fill="#9BADB7" />
<rect x="50" y="7" width="1" height="1" fill="#9BADB7" />
<rect x="51" y="7" width="1" height="1" fill="#9BADB7" />
<rect x="52" y="7" width="1" height="1" fill="#9BADB7" />
<rect x="53" y="7" width="1" height="1" fill="#9BADB7" />
<rect x="54" y="7" width="1" height="1" fill="#9BADB7" />
<rect x="55" y="7" width="1" height="1" fill="#9BADB7" />
<rect x="56" y="7" width="1" height="1" fill="#9BADB7" />
<rect x="57" y="7" width="1" height="1" fill="#9BADB7" />
<rect x="58" y="7" width="1" height="1" fill="#9BADB7" />
<rect x="59" y="7" width="1" height="1" fill="#9BADB7" />
<rect x="60" y="7" width="1" height="1" fill="#9BADB7" />
<rect x="61" y="7" width="1" height="1" fill="#9BADB7" />
<rect x="62" y="7" width="1" height="1" fill="#9BADB7" />
<rect x="63" y="7" width="1" height="1" fill="#9BADB7" />
<rect x="64" y="7" width="1" height="1" fill="#9BADB7" />
<rect x="65" y="7" width="1" height="1" fill="#9BADB7" />
<rect x="66" y="7" width="1" height="1" fill="#9BADB7" />
<rect x="67" y="7" width="1" height="1" fill="#9BADB7" />
<rect x="68" y="7" width="1" height="1" fill="#9BADB7" />
<rect x="69" y="7" width="1" height="1" fill="#9BADB7" />
<rect x="70" y="7" width="1" height="1" fill="#9BADB7" />
<rect x="71" y="7" width="1" height="1" fill="#9BADB7" />
<rect x="72" y="7" width="1" height="1" fill="#9BADB7" />
<rect x="73" y="7" width="1" height="1" fill="#9BADB7" />
<rect x="74" y="7" width="1" height="1" fill="#9BADB7" />
<rect x="75" y="7" width="1" height="1" fill="#9BADB7" />
<rect x="76" y="7" width="1" height="1" fill="#9BADB7" />
</svg>